<?xml version="1.0" encoding="utf-8"?>
<!-- Generator: Adobe Illustrator 27.0.0, SVG Export Plug-In . SVG Version: 6.00 Build 0)  -->
<svg version="1.1" id="livetype" xmlns="http://www.w3.org/2000/svg" xmlns:xlink="http://www.w3.org/1999/xlink" x="0px" y="0px"
	 viewBox="0 0 135 40" style="enable-background:new 0 0 135 40;" xml:space="preserve">
<style type="text/css">
	.st0{fill:#A6A6A6;}
	.st1{enable-background:new    ;}
	.st2{fill:#FFFFFF;}
</style>
<g>
	<g>
		<path d="M130,40H5c-2.8,0-5-2.2-5-5V5c0-2.8,2.2-5,5-5h125c2.8,0,5,2.2,5,5v30C135,37.7,132.8,40,130,40z"/>
	</g>
	<g>
		<g>
			<path class="st0" d="M130,0.8c2.3,0,4.2,1.9,4.2,4.2v30c0,2.3-1.9,4.2-4.2,4.2H5c-2.3,0-4.2-1.9-4.2-4.2V5c0-2.3,1.9-4.2,4.2-4.2
				H130 M130,0H5C2.2,0,0,2.2,0,5v30c0,2.8,2.2,5,5,5h125c2.8,0,5-2.2,5-5V5C135,2.3,132.8,0,130,0L130,0z"/>
		</g>
	</g>
	<g class="st1">
		<path class="st2" d="M41.9,13V7.1h2.3c0.6,0,1,0.1,1.5,0.4s0.7,0.6,1,1c0.2,0.4,0.3,1,0.3,1.5c0,0.6-0.1,1.1-0.3,1.5s-0.5,0.8-1,1
			c-0.4,0.2-0.9,0.4-1.5,0.4h-2.3V13z M44.1,8h-1.3v4.1h1.3c0.6,0,1.1-0.2,1.4-0.5c0.3-0.4,0.5-0.9,0.5-1.5S45.8,9,45.5,8.6
			S44.7,8,44.1,8z"/>
		<path class="st2" d="M49.9,13.1c-0.4,0-0.8-0.1-1.2-0.3s-0.6-0.5-0.8-0.8s-0.3-0.7-0.3-1.2s0.1-0.8,0.3-1.2
			c0.2-0.3,0.5-0.6,0.8-0.8s0.7-0.3,1.2-0.3c0.4,0,0.8,0.1,1.1,0.3c0.3,0.2,0.6,0.5,0.8,0.8s0.3,0.7,0.3,1.2S52,11.6,51.8,12
			c-0.2,0.3-0.5,0.6-0.8,0.8C50.7,13,50.3,13.1,49.9,13.1z M49.9,12.3c0.3,0,0.5-0.1,0.7-0.2s0.4-0.3,0.5-0.5s0.2-0.5,0.2-0.8
			s-0.1-0.5-0.2-0.8c-0.1-0.2-0.3-0.4-0.5-0.5s-0.4-0.2-0.7-0.2s-0.5,0.1-0.7,0.2s-0.4,0.3-0.5,0.5s-0.2,0.5-0.2,0.8s0,0.5,0.2,0.8
			c0.1,0.2,0.3,0.4,0.5,0.5C49.4,12.2,49.6,12.3,49.9,12.3z"/>
		<path class="st2" d="M54,13l-1.5-4.4h0.9l1,3l1.1-2.3H56l1,2.3l1-3h0.9L57.3,13h-0.6l-1.1-2.6l-1,2.6H54z"/>
		<path class="st2" d="M59.6,13V8.6h0.9v0.7c0.1-0.2,0.4-0.4,0.6-0.6c0.3-0.2,0.5-0.2,0.8-0.2c1,0,1.5,0.6,1.5,1.8V13h-0.9v-2.6
			c0-0.8-0.3-1.1-0.9-1.1c-0.2,0-0.4,0-0.6,0.1s-0.3,0.2-0.4,0.4s-0.2,0.3-0.2,0.5V13H59.6z"/>
		<path class="st2" d="M64.6,13V6.8h0.9V13H64.6z"/>
		<path class="st2" d="M68.6,13.1c-0.4,0-0.8-0.1-1.2-0.3s-0.6-0.5-0.8-0.8c-0.2-0.3-0.3-0.7-0.3-1.2s0.1-0.8,0.3-1.2
			c0.2-0.3,0.5-0.6,0.8-0.8s0.7-0.3,1.2-0.3c0.4,0,0.8,0.1,1.1,0.3C70,9,70.3,9.3,70.5,9.6c0.2,0.3,0.3,0.7,0.3,1.2
			s-0.1,0.8-0.3,1.2s-0.5,0.6-0.8,0.8C69.4,13,69,13.1,68.6,13.1z M68.6,12.3c0.3,0,0.5-0.1,0.7-0.2s0.4-0.3,0.5-0.5
			s0.2-0.5,0.2-0.8s0-0.5-0.2-0.8c-0.1-0.2-0.3-0.4-0.5-0.5s-0.4-0.2-0.7-0.2s-0.5,0.1-0.7,0.2s-0.4,0.3-0.5,0.5s-0.2,0.5-0.2,0.8
			s0,0.5,0.2,0.8c0.1,0.2,0.3,0.4,0.5,0.5C68.1,12.2,68.3,12.3,68.6,12.3z"/>
		<path class="st2" d="M73.5,13.1c-0.4,0-0.7-0.1-1-0.3S72,12.3,71.8,12s-0.3-0.7-0.3-1.2c0-0.4,0.1-0.8,0.3-1.2s0.4-0.6,0.7-0.8
			c0.3-0.2,0.7-0.3,1-0.3s0.6,0.1,0.9,0.2S74.8,9,75,9.2V8.5h0.9V13H75v-0.7c-0.2,0.2-0.4,0.4-0.6,0.5C74.1,13,73.8,13.1,73.5,13.1z
			 M73.7,12.3c0.3,0,0.5-0.1,0.7-0.2s0.4-0.3,0.5-0.5s0.2-0.5,0.2-0.8S75,10.3,74.9,10s-0.3-0.4-0.5-0.5S74,9.3,73.7,9.3
			c-0.3,0-0.5,0.1-0.7,0.2s-0.4,0.3-0.5,0.5s-0.2,0.5-0.2,0.8s0.1,0.5,0.2,0.8c0.1,0.2,0.3,0.4,0.5,0.5
			C73.2,12.2,73.4,12.3,73.7,12.3z"/>
		<path class="st2" d="M78.9,13.1c-0.4,0-0.8-0.1-1.1-0.3c-0.3-0.2-0.6-0.5-0.8-0.8c-0.2-0.3-0.3-0.7-0.3-1.2S76.8,10,77,9.6
			c0.2-0.3,0.4-0.6,0.7-0.8c0.3-0.2,0.7-0.3,1.1-0.3c0.3,0,0.6,0.1,0.8,0.2c0.3,0.1,0.5,0.3,0.6,0.5V6.9h0.9V13h-0.9v-0.6
			c-0.1,0.2-0.3,0.4-0.6,0.5S79.2,13.1,78.9,13.1z M79,12.3c0.3,0,0.5-0.1,0.7-0.2s0.4-0.3,0.5-0.5s0.2-0.5,0.2-0.8
			s-0.1-0.6-0.2-0.8c-0.1-0.2-0.3-0.4-0.5-0.5S79.3,9.3,79,9.3c-0.3,0-0.5,0.1-0.7,0.2S78,9.8,77.8,10c-0.1,0.2-0.2,0.5-0.2,0.8
			s0.1,0.6,0.2,0.8c0.1,0.2,0.3,0.4,0.5,0.5S78.8,12.3,79,12.3z"/>
		<path class="st2" d="M86.7,13.1c-0.4,0-0.8-0.1-1.2-0.3s-0.6-0.5-0.8-0.8s-0.3-0.7-0.3-1.2s0.1-0.8,0.3-1.2
			c0.2-0.3,0.5-0.6,0.8-0.8s0.7-0.3,1.2-0.3c0.4,0,0.8,0.1,1.1,0.3c0.3,0.2,0.6,0.5,0.8,0.8c0.2,0.3,0.3,0.7,0.3,1.2
			s-0.1,0.8-0.3,1.2s-0.5,0.6-0.8,0.8C87.5,13,87.1,13.1,86.7,13.1z M86.7,12.3c0.3,0,0.5-0.1,0.7-0.2s0.4-0.3,0.5-0.5
			s0.2-0.5,0.2-0.8s0-0.5-0.2-0.8c-0.1-0.2-0.3-0.4-0.5-0.5S87,9.3,86.7,9.3S86.2,9.4,86,9.5s-0.4,0.3-0.5,0.5s-0.2,0.5-0.2,0.8
			s0,0.5,0.2,0.8c0.1,0.2,0.3,0.4,0.5,0.5C86.2,12.2,86.4,12.3,86.7,12.3z"/>
		<path class="st2" d="M89.9,13V8.6h0.9v0.7c0.1-0.2,0.4-0.4,0.6-0.6c0.3-0.2,0.5-0.2,0.8-0.2c1,0,1.5,0.6,1.5,1.8V13h-0.9v-2.6
			c0-0.8-0.3-1.1-0.9-1.1c-0.2,0-0.4,0-0.6,0.1S91,9.6,90.9,9.8s-0.2,0.3-0.2,0.5V13H89.9z"/>
		<path class="st2" d="M97.8,13V9.4h-0.9V8.6h0.9V7.5h0.9v1.1h1v0.8h-1V13H97.8z"/>
		<path class="st2" d="M100.4,13V6.8h0.9v2.5c0.1-0.2,0.4-0.4,0.6-0.6c0.3-0.2,0.5-0.2,0.8-0.2c1,0,1.5,0.6,1.5,1.8V13h-0.9v-2.6
			c0-0.8-0.3-1.1-0.9-1.1c-0.2,0-0.4,0-0.6,0.1s-0.3,0.2-0.4,0.4s-0.2,0.3-0.2,0.5V13H100.4z"/>
		<path class="st2" d="M107.5,13.1c-0.5,0-0.9-0.1-1.2-0.3c-0.3-0.2-0.6-0.5-0.8-0.8s-0.3-0.7-0.3-1.2s0.1-0.9,0.3-1.2
			c0.2-0.3,0.5-0.6,0.8-0.8s0.7-0.3,1.2-0.3c0.4,0,0.7,0.1,1,0.3c0.3,0.2,0.5,0.4,0.7,0.8c0.2,0.3,0.3,0.7,0.2,1.1v0.4H106
			c0.1,0.4,0.2,0.7,0.5,0.9c0.3,0.2,0.6,0.3,1.1,0.3c0.2,0,0.4,0,0.6-0.1s0.4-0.2,0.6-0.4l0.4,0.6c-0.2,0.2-0.5,0.4-0.8,0.5
			C108.1,13,107.8,13.1,107.5,13.1z M107.4,9.3c-0.8,0-1.2,0.3-1.3,1h2.5v-0.1c0-0.2-0.1-0.3-0.2-0.5c-0.1-0.1-0.2-0.3-0.4-0.3
			S107.6,9.3,107.4,9.3z"/>
	</g>
</g>
<g>
	<g>
		<g id="_Group_">
			<g id="_Group_2">
				<g id="_Group_3">
					<path id="_Path_" class="st2" d="M28.8,18.8c0-1.8,1-3.6,2.6-4.5c-1-1.4-2.6-2.3-4.4-2.4c-1.8-0.2-3.6,1.1-4.5,1.1
						c-1,0-2.4-1.1-3.9-1c-2,0.1-3.9,1.2-4.9,3c-2.1,3.7-0.5,9,1.5,12c1,1.4,2.2,3.1,3.7,3s2.1-1,3.9-1c1.8,0,2.3,1,3.9,0.9
						c1.6,0,2.6-1.5,3.6-2.9c0.7-1,1.3-2.2,1.7-3.4C30.1,22.8,28.8,20.9,28.8,18.8z"/>
					<path id="_Path_2" class="st2" d="M25.8,10c0.9-1.1,1.3-2.4,1.2-3.8C25.6,6.3,24.4,7,23.5,8s-1.3,2.3-1.2,3.7
						C23.7,11.7,25,11.1,25.8,10z"/>
				</g>
			</g>
			<g>
				<path class="st2" d="M49.9,26.3h-5.2L43.5,30h-2.2l4.9-13.5h2.3L53.4,30h-2.2L49.9,26.3z M45.3,24.6h4.1l-2-5.9h-0.1L45.3,24.6z
					"/>
				<path class="st2" d="M63.9,25c0,3.1-1.6,5-4.1,5c-1.3,0.1-2.5-0.6-3.1-1.7l0,0v4.9h-2V20.1h2v1.6l0,0c0.6-1.1,1.9-1.8,3.1-1.7
					C62.3,20,63.9,22,63.9,25z M61.9,25c0-2-1-3.3-2.6-3.3c-1.5,0-2.6,1.3-2.6,3.3s1,3.3,2.6,3.3C60.8,28.3,61.9,27,61.9,25z"/>
				<path class="st2" d="M74.8,25c0,3.1-1.6,5-4.1,5c-1.3,0.1-2.5-0.6-3.1-1.7l0,0v4.9h-2V20.1h2v1.6l0,0c0.6-1.1,1.9-1.8,3.1-1.7
					C73.2,20,74.8,22,74.8,25z M72.7,25c0-2-1-3.3-2.6-3.3c-1.5,0-2.6,1.3-2.6,3.3s1,3.3,2.6,3.3S72.7,27,72.7,25L72.7,25z"/>
				<path class="st2" d="M82,26.2c0.2,1.3,1.5,2.2,3.2,2.2s2.9-0.9,2.9-2.1c0-1.1-0.7-1.7-2.5-2.1l-1.8-0.4
					c-2.5-0.6-3.6-1.8-3.6-3.6c0-2.3,2-3.9,4.9-3.9s4.8,1.6,4.9,3.9h-2c-0.1-1.4-1.2-2.2-2.9-2.2c-1.6,0-2.7,0.8-2.7,2
					c0,1,0.7,1.5,2.5,2l1.5,0.4c2.8,0.7,3.9,1.8,3.9,3.8c0,2.5-2,4.1-5.2,4.1c-3,0-5-1.5-5.2-4L82,26.2z"/>
				<path class="st2" d="M94.7,17.7V20h1.9v1.6h-1.9V27c0,0.8,0.4,1.2,1.2,1.2c0.2,0,0.4,0,0.7,0v1.6c-0.4,0.1-0.7,0.1-1.1,0.1
					c-2,0-2.8-0.8-2.8-2.7v-5.7h-1.4v-1.6h1.4v-2.3h2C94.7,17.6,94.7,17.7,94.7,17.7z"/>
				<path class="st2" d="M97.6,25c0-3.1,1.8-5.1,4.7-5.1c2.9,0,4.7,2,4.7,5.1s-1.8,5.1-4.7,5.1S97.6,28.1,97.6,25z M104.9,25
					c0-2.1-1-3.4-2.6-3.4s-2.6,1.3-2.6,3.4s1,3.4,2.6,3.4S104.9,27.1,104.9,25L104.9,25z"/>
				<path class="st2" d="M108.7,20.1h1.9v1.7l0,0c0.3-1.1,1.3-1.8,2.4-1.8c0.2,0,0.5,0,0.7,0.1V22c-0.3-0.1-0.6-0.1-0.9-0.1
					c-1.1,0-2.1,0.8-2.1,2c0,0.1,0,0.2,0,0.3v5.9h-2V20.1z"/>
				<path class="st2" d="M123.1,27c-0.3,1.8-2,3-4.2,3c-2.9,0-4.7-1.9-4.7-5s1.8-5.1,4.6-5.1c2.7,0,4.4,1.9,4.4,4.9v0.7h-7v0.1
					c-0.1,1.4,0.9,2.7,2.3,2.8c0.1,0,0.2,0,0.3,0c1,0.1,1.9-0.5,2.3-1.4L123.1,27z M116.2,24.1h4.9c0.1-1.3-0.9-2.4-2.2-2.5
					c-0.1,0-0.1,0-0.2,0C117.3,21.6,116.2,22.7,116.2,24.1L116.2,24.1z"/>
			</g>
		</g>
	</g>
</g>
</svg>
