<svg width="235" height="222" viewBox="0 0 235 222" fill="none" xmlns="http://www.w3.org/2000/svg">
<g clip-path="url(#clip0_431533_2811)">
<path d="M187.103 63.0143C186.724 57.7526 184.259 51.4511 169.852 55.5156C162.428 57.6266 155.572 57.7211 152.633 54.8224C152.286 54.4189 151.959 53.9983 151.654 53.5621C150.548 51.3251 151.022 47.9223 153.834 43.1647C154.443 41.8424 155.439 40.7346 156.69 39.9867C157.942 39.2389 159.391 38.886 160.848 38.9743C163.154 38.9743 165.777 39.4469 168.968 39.3839C178.983 39.1318 182.806 32.8934 182.364 27.1591C182.364 25.4262 179.962 25.9618 175.602 24.922C171.242 23.8823 167.799 24.4179 166.914 18.3055C166.387 16.5896 165.356 15.0712 163.953 13.9475C162.55 12.8238 160.841 12.1467 159.047 12.0041C155.54 11.4685 148.052 7.90814 142.46 12.3822L137.626 10.2712C134.466 9.4835 134.466 11.689 131.528 12.7918C128.59 13.8945 123.408 11.1849 124.83 14.7767C125.874 16.8642 127.634 18.5086 129.791 19.4107C131.948 20.3127 134.359 20.4125 136.583 19.6918C133.139 37.0208 116.457 40.9277 102.556 40.3921C93.68 40.0477 85.3041 36.2043 79.2677 29.706C73.2312 23.2078 70.0279 14.5859 70.3611 5.73414C70.5506 0.409417 68.8129 -1.13444 67.2016 1.6382C66.5553 2.80834 66.0666 4.05842 65.7483 5.35605C65.5903 5.89168 65.4639 6.49031 65.3375 7.12046C64.4428 13.3051 65.1917 19.6155 67.5092 25.4211C69.8268 31.2266 73.6318 36.3238 78.5441 40.2031C75.6413 42.7537 73.5907 46.1291 72.6675 49.8758C72.0324 52.5732 71.9571 55.3717 72.4463 58.0992C72.4463 58.8238 72.7307 59.2334 72.7307 59.2334C73.9313 64.9677 63.2523 68.6856 58.6079 69.5678H57.5969C56.9765 69.6159 56.3532 69.6159 55.7328 69.5678C55.0448 69.5511 54.3586 69.488 53.6792 69.3788C50.8673 69.1582 48.8136 69.5993 47.0127 76.5309C44.4852 86.2666 37.1236 84.0926 35.3543 86.8338C32.574 91.2448 36.7129 94.553 41.9892 94.8366C45.4418 95.075 48.8489 93.9424 51.4676 91.6859C60.5668 83.494 56.2067 79.8707 65.2428 80.4693C66.3802 80.4693 67.7703 80.6899 69.4132 80.9104C79.4287 82.2022 86.5375 84.2817 96.395 73.6637C96.9895 72.8406 97.6788 72.0898 98.4486 71.4267C98.953 71.0004 99.5312 70.6694 100.155 70.45C100.729 70.3417 101.318 70.3417 101.892 70.45C105.715 71.3322 114.309 76.0268 124.009 74.4514C127.811 73.0785 131.286 70.9327 134.214 68.15C134.214 68.15 135.762 66.7952 136.741 68.15C137.721 69.5048 139.364 72.0569 140.817 73.6007C144.261 77.3501 144.324 75.8062 151.654 72.8446C152.38 72.5295 153.17 72.2144 154.055 71.8993C173.012 64.9678 172.727 62.7307 176.55 70.2925C177.245 71.6788 179.71 71.8363 182.016 70.8911C183.613 70.3161 184.976 69.2336 185.895 67.8103C186.814 66.387 187.238 64.7018 187.103 63.0143Z" fill="#FBA919"/>
<path d="M175.634 116.986H187.924V144.02C188.651 143.074 189.156 142.224 189.788 141.467C192.25 138.711 195.605 136.905 199.267 136.363C203.418 135.534 207.721 135.928 211.652 137.498C213.965 138.498 216.021 140.007 217.668 141.911C219.314 143.815 220.509 146.065 221.162 148.494C222.049 151.426 222.496 154.473 222.488 157.536C222.488 163.207 222.488 168.879 222.488 174.55C222.493 175.381 222.61 176.208 222.836 177.008C222.936 177.6 223.254 178.134 223.727 178.507C224.199 178.879 224.794 179.064 225.395 179.024C226.153 179.024 226.912 179.024 227.733 179.024C227.733 179.213 227.733 179.434 227.733 179.686C227.733 182.647 227.733 185.641 227.733 188.634C227.733 188.917 227.512 189.421 227.354 189.453C223.355 190.573 219.084 190.192 215.348 188.382C213.97 187.56 212.804 186.428 211.943 185.077C211.082 183.726 210.549 182.192 210.388 180.599C210.15 179.172 210.024 177.729 210.009 176.283C210.009 170.517 210.009 164.751 210.009 158.985C210.065 156.888 209.667 154.803 208.84 152.873C208.016 151.012 206.628 149.455 204.871 148.421C203.115 147.387 201.077 146.927 199.045 147.107C196.101 147.19 193.308 148.427 191.273 150.551C189.238 152.675 188.126 155.513 188.177 158.45C188.177 168.343 188.177 178.236 188.177 188.13V189.358H175.855L175.634 116.986Z" fill="white"/>
<path d="M83.8203 155.551C83.0382 151.441 81.205 147.602 78.4983 144.406C75.7915 141.21 72.303 138.765 68.3706 137.309C63.125 135.316 57.3975 134.954 51.9415 136.269C47.866 136.991 44.0378 138.722 40.8083 141.304C37.5789 143.886 35.0516 147.236 33.4587 151.046C30.6699 157.559 30.1798 164.824 32.0685 171.652C32.728 174.606 33.9698 177.401 35.7217 179.872C37.4736 182.344 39.7007 184.444 42.2735 186.05C46.3783 188.61 51.0219 190.187 55.8403 190.657C60.6586 191.127 65.5207 190.478 70.0451 188.76C74.2539 187.229 78.0119 184.673 80.9768 181.324L73.5837 174.172C72.0773 175.443 70.4947 176.622 68.8445 177.701C66.5907 178.959 64.1064 179.752 61.5392 180.033C58.972 180.315 56.3743 180.079 53.9003 179.339C51.9702 178.908 50.1618 178.05 48.6088 176.828C47.0557 175.607 45.7976 174.053 44.9275 172.282C43.9922 170.434 43.495 168.397 43.4741 166.327H84.2942C84.794 162.736 84.6334 159.085 83.8203 155.551ZM71.7512 157.536H43.8217C43.8842 155.896 44.3979 154.305 45.3066 152.936C46.4897 151.105 48.0682 149.56 49.9268 148.416C51.7854 147.271 53.877 146.555 56.0487 146.32C57.9001 145.987 59.7989 146.022 61.6367 146.422C63.4745 146.822 65.2152 147.58 66.7593 148.651C68.1909 149.554 69.389 150.78 70.2563 152.231C71.1236 153.681 71.6358 155.316 71.7512 157.001C71.7674 157.179 71.7674 157.358 71.7512 157.536Z" fill="white"/>
<path d="M169.599 144.398L168.999 145.028C166.629 147.486 164.26 149.912 161.922 152.369C160.485 150.583 158.698 149.108 156.669 148.036C154.64 146.964 152.413 146.317 150.125 146.135C147.836 145.953 145.534 146.239 143.36 146.976C141.187 147.714 139.187 148.887 137.485 150.423C135.782 151.96 134.413 153.827 133.461 155.91C132.509 157.994 131.994 160.249 131.948 162.539C131.902 164.828 132.326 167.102 133.193 169.222C134.061 171.342 135.354 173.262 136.994 174.865C138.69 176.44 140.681 177.663 142.854 178.465C145.027 179.267 147.338 179.632 149.653 179.538C151.968 179.444 154.241 178.894 156.342 177.919C158.442 176.944 160.328 175.563 161.89 173.857L169.599 181.828C165.717 186.159 160.527 189.112 154.813 190.241C150.653 191.177 146.337 191.197 142.168 190.299C137.999 189.402 134.077 187.607 130.675 185.042C127.653 182.833 125.144 180.002 123.318 176.74C121.491 173.478 120.391 169.862 120.091 166.138C119.26 159.221 121.105 152.249 125.25 146.641C129.394 141.033 135.526 137.211 142.396 135.954C149.032 134.517 155.962 135.442 161.985 138.569C164.836 140.068 167.411 142.039 169.599 144.398Z" fill="white"/>
<path d="M115.762 179.182V190.304C114.656 190.461 113.551 190.65 112.413 190.745C108.955 191.13 105.455 190.83 102.113 189.863C99.7648 189.143 97.6677 187.776 96.0635 185.92C94.4593 184.064 93.4133 181.793 93.0458 179.371C92.6202 177.116 92.3981 174.828 92.3824 172.534C92.3824 164.846 92.3824 157.158 92.3824 149.47V148.336H85.8423V137.025H92.1612V116.986H104.799V136.962H116.363V148.305H104.957C104.957 148.651 104.957 148.872 104.957 149.092C104.957 156.969 104.957 164.825 104.957 172.66C104.972 173.575 105.1 174.485 105.336 175.369C105.533 176.56 106.151 177.641 107.078 178.415C108.006 179.19 109.181 179.607 110.391 179.591H113.045C113.93 179.591 114.814 179.308 115.762 179.182Z" fill="white"/>
<path d="M8.53052 174.393C8.52574 175.224 8.40885 176.05 8.18298 176.85C8.06986 177.437 7.74915 177.963 7.27936 178.333C6.80957 178.703 6.222 178.893 5.62382 178.867H3.15945C3.15945 179.056 3.15945 179.276 3.15945 179.497C3.15945 182.648 3.15945 185.483 3.15945 188.476C3.15945 188.76 3.34902 189.264 3.53859 189.296C7.61525 190.481 11.9894 190.099 15.7973 188.224C17.1751 187.403 18.3412 186.271 19.2024 184.92C20.0636 183.568 20.5962 182.035 20.7576 180.442C21.0104 179.024 21.1683 176.031 21.1683 176.031V148.305H30.8362V136.994H21.0104C21.0104 135.324 21.0104 133.843 21.0104 132.268C20.9151 131.392 21.0247 130.506 21.3304 129.679C21.6362 128.853 22.1298 128.108 22.7726 127.504C23.4154 126.899 24.1899 126.451 25.0353 126.196C25.8807 125.94 26.774 125.883 27.6452 126.029C29.2881 126.029 30.9626 126.029 32.6687 126.281V115.947H32.2896C28.6561 115.395 24.9598 115.395 21.3263 115.947C18.7634 116.25 16.3349 117.256 14.3104 118.852C12.2859 120.448 10.7446 122.573 9.85749 124.989C8.89596 127.633 8.44568 130.434 8.53052 133.244V137.057H0V148.431H8.53052V174.393Z" fill="white"/>
<path d="M235 141.94C235.025 142.626 234.844 143.303 234.48 143.885C234.116 144.466 233.585 144.926 232.957 145.205C232.328 145.483 231.631 145.567 230.953 145.447C230.276 145.326 229.651 145.007 229.158 144.528C228.665 144.05 228.327 143.436 228.187 142.765C228.047 142.093 228.112 141.395 228.373 140.761C228.635 140.126 229.081 139.585 229.653 139.205C230.226 138.826 230.9 138.626 231.588 138.632C232.03 138.624 232.47 138.703 232.882 138.865C233.293 139.027 233.668 139.269 233.986 139.577C234.303 139.884 234.556 140.251 234.73 140.657C234.904 141.063 234.996 141.499 235 141.94ZM228.997 141.94C229.01 142.45 229.173 142.944 229.466 143.361C229.76 143.778 230.171 144.1 230.647 144.284C231.123 144.469 231.643 144.51 232.143 144.401C232.642 144.291 233.097 144.037 233.452 143.67C233.807 143.304 234.045 142.84 234.136 142.339C234.227 141.837 234.168 141.32 233.965 140.853C233.763 140.385 233.426 139.987 232.997 139.71C232.569 139.432 232.067 139.288 231.556 139.294C231.213 139.298 230.875 139.37 230.56 139.505C230.245 139.641 229.96 139.837 229.722 140.084C229.484 140.33 229.297 140.621 229.173 140.939C229.048 141.258 228.989 141.598 228.997 141.94ZM231.051 143.642H230.292V140.333C230.713 140.308 231.135 140.308 231.556 140.333C231.953 140.289 232.353 140.378 232.694 140.585C232.809 140.666 232.902 140.775 232.963 140.902C233.023 141.029 233.051 141.17 233.041 141.31C233.02 141.497 232.943 141.672 232.818 141.813C232.694 141.954 232.529 142.054 232.346 142.098C232.514 142.163 232.659 142.275 232.766 142.42C232.872 142.565 232.935 142.738 232.946 142.917C232.978 143.194 233.064 143.461 233.199 143.705H232.378C232.244 143.458 232.148 143.192 232.093 142.917C232.093 142.57 231.841 142.413 231.43 142.413H231.051V143.642ZM231.051 141.783H231.398C231.841 141.783 232.188 141.783 232.188 141.31C232.188 140.837 231.967 140.806 231.461 140.806H231.051V141.783Z" fill="white"/>
</g>
<defs>
<clipPath id="clip0_431533_2811">
<rect width="235" height="222" fill="white"/>
</clipPath>
</defs>
</svg>
